<?xml version="1.0" encoding="utf-8"?>
<!-- Generator: Adobe Illustrator 15.1.0, SVG Export Plug-In . SVG Version: 6.00 Build 0)  -->
<!DOCTYPE svg PUBLIC "-//W3C//DTD SVG 1.1//EN" "http://www.w3.org/Graphics/SVG/1.1/DTD/svg11.dtd">
<svg version="1.1" id="lowercase" xmlns="http://www.w3.org/2000/svg" xmlns:xlink="http://www.w3.org/1999/xlink" x="0px" y="0px"
	 width="1000.059px" height="372.908px" viewBox="-0.011 313.522 1000.059 372.908"
	 enable-background="new -0.011 313.522 1000.059 372.908" xml:space="preserve">
<g>
	<g id="_Group_">
		<path fill="#32AFF7" d="M324.101,603.529c-1.683,0-3.317-0.528-4.664-1.538c-3.27-2.646-3.799-7.405-1.202-10.724l119.254-150.462
			c2.692-3.27,7.501-3.702,10.771-1.058c3.173,2.645,3.702,7.309,1.201,10.579L330.208,600.789
			C328.669,602.616,326.457,603.626,324.101,603.529"/>
		<path fill="#32AFF7" d="M324.101,606.174c-5.626,0-10.194-4.567-10.146-10.193c0-2.309,0.769-4.568,2.26-6.348l119.254-150.462
			c1.683-2.115,4.135-3.51,6.876-3.799c2.692-0.288,5.386,0.481,7.55,2.164c2.115,1.683,3.51,4.184,3.799,6.876
			c0.288,2.693-0.481,5.386-2.164,7.55L332.275,602.424C330.208,604.828,327.227,606.223,324.101,606.174z M443.451,440.518
			c-0.193,0-0.385,0-0.577,0.048c-1.347,0.145-2.549,0.817-3.366,1.827L320.254,592.854c-0.817,1.058-1.202,2.404-1.058,3.751
			c0.24,2.5,2.404,4.424,4.904,4.375c1.539,0.049,3.029-0.625,4.039-1.827l119.254-150.461c0.817-1.059,1.202-2.404,1.058-3.751
			c-0.144-1.347-0.817-2.549-1.827-3.366C445.711,440.902,444.604,440.518,443.451,440.518L443.451,440.518z"/>
	</g>
	<g id="_Group_2">
		<path fill="#FF8900" d="M292.027,316.119c-27.649,0-52.895,15.628-65.205,40.392c-11.973-23.947-36.738-40.392-65.157-40.392
			c-40.2,0-72.802,32.602-72.802,72.802l0,0c0,4.231,3.414,7.646,7.646,7.646c4.232,0,7.646-3.414,7.646-7.646l0,0
			c0-31.785,25.774-57.559,57.559-57.559c31.785,0,57.559,25.774,57.559,57.559c0.096,4.231,3.606,7.55,7.838,7.453
			c4.087-0.096,7.357-3.366,7.454-7.453c0-31.785,25.774-57.559,57.559-57.559c31.785,0,57.462,25.774,57.462,57.559
			c0,4.231,3.415,7.646,7.646,7.598c4.184,0,7.598-3.414,7.598-7.598C364.83,348.865,332.228,316.119,292.027,316.119"/>
		<path fill="#FF8900" d="M357.184,399.163c-5.626,0-10.242-4.568-10.242-10.242c-0.24-30.342-25.101-54.722-55.443-54.434
			c-29.958,0.289-54.145,24.476-54.434,54.434c0,5.626-4.568,10.242-10.243,10.194c-5.626,0-10.194-4.568-10.194-10.194
			c0-30.342-24.621-54.962-54.963-54.962s-54.962,24.62-54.962,54.962c0,5.626-4.568,10.242-10.242,10.242
			c-5.626,0-10.242-4.568-10.242-10.242c0.048-41.546,33.853-75.399,75.447-75.399c26.88-0.048,51.741,14.233,65.205,37.507
			c13.464-23.274,38.325-37.556,65.205-37.507c41.595,0,75.399,33.853,75.399,75.399
			C367.427,394.595,362.858,399.163,357.184,399.163z M292.027,328.765c33.228,0.048,60.107,26.928,60.156,60.156
			c0.096,2.789,2.404,4.953,5.192,4.857c2.646-0.096,4.809-2.212,4.857-4.857c0-38.709-31.497-70.206-70.206-70.206
			c-26.688-0.048-51.02,15.051-62.849,38.95l-2.308,4.664l-2.308-4.664c-11.829-23.899-36.209-38.998-62.849-38.95
			c-38.709,0-70.206,31.496-70.206,70.206c0,2.789,2.26,5.001,5.049,5.001s5.001-2.26,5.001-5.001
			c0-33.228,26.928-60.156,60.156-60.156s60.156,26.928,60.156,60.156c0.096,2.789,2.404,4.953,5.193,4.857
			c2.645-0.096,4.809-2.212,4.856-4.857C231.919,355.742,258.8,328.813,292.027,328.765z"/>
	</g>
	<g id="_Group_3">
		<path fill="#FF8900" d="M352.184,436.767c-3.318-2.597-8.079-2.067-10.724,1.202L226.678,583.622L111.896,437.969
			c-2.693-3.27-7.501-3.702-10.771-1.058c-3.173,2.645-3.703,7.309-1.202,10.579l120.648,153.25
			c2.452,3.271,7.069,3.896,10.291,1.491c0.577-0.433,1.058-0.914,1.491-1.491l120.648-153.25
			C356.174,444.22,355.453,439.363,352.184,436.767"/>
		<path fill="#FF8900" d="M226.486,606.318c-3.174,0-6.107-1.442-7.982-3.991l-120.6-153.202c-1.683-2.116-2.452-4.856-2.164-7.55
			c0.289-2.692,1.635-5.193,3.799-6.876c4.424-3.511,10.867-2.789,14.426,1.635l0,0l112.714,143.008l112.714-143.008
			c1.683-2.164,4.184-3.511,6.876-3.799s5.386,0.48,7.55,2.164c2.212,1.73,3.606,4.327,3.847,7.165
			c0.192,2.692-0.77,5.337-2.597,7.309L234.42,602.375C232.545,604.876,229.611,606.318,226.486,606.318z M105.934,437.729
			c-1.154,0-2.26,0.385-3.173,1.105c-1.058,0.818-1.731,2.021-1.828,3.366c-0.144,1.347,0.241,2.693,1.058,3.751l120.648,153.202
			c1.539,2.116,4.52,2.597,6.684,1.01c0.385-0.288,0.673-0.576,0.962-0.961l120.888-153.443c0.914-0.914,1.395-2.164,1.299-3.462
			c-0.097-1.347-0.817-2.597-1.875-3.463c-1.059-0.817-2.404-1.202-3.751-1.058s-2.549,0.817-3.366,1.827L226.678,587.806
			L109.877,439.604C108.915,438.401,107.473,437.729,105.934,437.729z"/>
	</g>
	<g id="_Group_4">
		<path fill="#32AFF7" d="M129.592,603.529c-2.308,0-4.52-1.105-5.915-2.933L4.231,450.135c-2.645-3.318-2.067-8.127,1.202-10.771
			c3.318-2.645,8.127-2.067,10.723,1.202l119.254,150.462c2.597,3.317,2.068,8.126-1.202,10.771
			C132.958,602.952,131.275,603.529,129.592,603.529"/>
		<path fill="#32AFF7" d="M129.592,606.174c-3.174,0-6.107-1.49-7.982-4.039L2.212,451.722c-1.683-2.116-2.452-4.856-2.164-7.55
			c0.289-2.692,1.635-5.193,3.799-6.876c2.116-1.684,4.857-2.452,7.55-2.164s5.193,1.635,6.876,3.799l119.253,150.462
			c1.683,2.115,2.5,4.856,2.164,7.549c-0.289,2.693-1.635,5.193-3.799,6.877C134.16,605.356,131.9,606.174,129.592,606.174z
			 M10.242,440.325c-1.154,0-2.26,0.385-3.173,1.105c-1.058,0.817-1.683,2.021-1.828,3.366c-0.144,1.347,0.241,2.693,1.058,3.751
			L125.745,599.01c0.914,1.25,2.309,1.971,3.847,1.971c1.106,0,2.116-0.384,2.981-1.105c1.106-0.817,1.779-2.067,1.923-3.462
			c0.144-1.347-0.24-2.693-1.058-3.751L14.186,442.2c-0.817-1.058-2.02-1.73-3.366-1.827
			C10.627,440.325,10.435,440.325,10.242,440.325z"/>
	</g>
	<path fill="#32AFF7" d="M528.611,593.96V324.534c0-4.424,3.606-8.031,8.03-8.031h7.646c4.424,0,8.03,3.607,8.03,8.031v156.04
		c0,1.202,0.817,1.635,1.202,1.635c0.817,0,2.02-0.817,2.789-1.635l81.266-74.39c2.02-2.02,5.626-5.241,11.253-5.241h7.646
		c5.626,0,8.03,3.606,8.03,7.261c0,2.261-0.866,4.376-2.404,6.011l-86.459,78.429c-1.587,1.587-2.404,3.222-2.404,4.809
		s0.817,3.222,2.404,4.809l88.479,85.642c2.02,2.02,2.837,4.039,2.837,6.443c0,4.04-2.837,7.646-8.463,7.646h-8.03
		c-6.011,0-10.05-4.04-12.07-6.011l-81.266-80.4c-1.587-1.587-2.788-2.404-3.606-2.404c-0.817,0-1.202,0.385-1.202,1.587v79.197
		c0,4.425-3.606,8.031-8.03,8.031h-7.646C532.218,601.991,528.659,598.433,528.611,593.96z"/>
	<path fill="#32AFF7" d="M704.366,569.869c-12.887-19.715-14.089-39.431-14.089-68.379c0-28.947,1.202-48.663,14.089-68.378
		c14.089-21.735,37.411-36.209,67.946-36.209c22.119,0,41.834,5.626,54.722,18.08c13.656,12.888,20.917,31.785,20.917,50.25
		c0,4.424-2.404,8.03-6.828,8.03h-10.05c-3.606,0-7.646-2.02-7.646-6.443c0-12.887-4.424-26.928-14.907-35.392
		c-8.848-7.261-21.302-10.867-36.208-10.867c-22.12,0-40.2,10.867-49.481,30.968c-6.059,12.887-7.261,26.543-7.261,49.865
		c0,23.321,1.202,37.026,7.261,49.865c9.232,20.1,27.361,30.968,49.481,30.968c18.08,0,31.352-5.626,39.43-14.858
		c7.646-8.849,11.253-20.918,11.253-30.968c0-5.241,4.039-6.828,7.646-6.828h9.232c4.424,0,8.03,3.606,8.03,8.03
		c0,16.493-6.443,33.372-17.311,45.441c-13.272,14.474-33.757,22.938-58.329,22.938C741.777,606.03,718.455,591.556,704.366,569.869
		z"/>
	<path fill="#32AFF7" d="M872.908,622.139c0-4.424,3.606-8.03,8.463-8.03h8.464c4.424,0,8.03,3.606,8.03,8.03
		c0,25.727,16.061,39.431,39.431,39.431c23.369,0,38.181-15.291,38.181-45.441V429.073c0-2.404-1.636-4.04-4.04-4.04H899.5
		c-4.424,0-8.03-3.606-8.03-8.03v-8.03c0-4.424,3.606-8.03,8.03-8.03h92.518c4.424,0,8.03,3.606,8.03,8.03V616.08
		c0,48.23-27.36,70.35-62.752,70.35S872.908,664.358,872.908,622.139z"/>
	<circle fill="#32AFF7" cx="979.756" cy="336.555" r="20.196"/>
</g>
</svg>
