<?xml version="1.0" encoding="utf-8"?>
<!-- Generator: Adobe Illustrator 22.1.0, SVG Export Plug-In . SVG Version: 6.00 Build 0)  -->
<svg version="1.1" id="Layer_1" xmlns="http://www.w3.org/2000/svg" xmlns:xlink="http://www.w3.org/1999/xlink" x="0px" y="0px"
	 viewBox="0 0 282 109" style="enable-background:new 0 0 282 109;" xml:space="preserve">
<style type="text/css">
	.st0{fill:#FFFFFF;}
	.st1{fill:#7DC242;}
	.st2{fill:#00539F;}
</style>
<rect x="0" y="0" class="st0" width="282" height="109"/>
<g>
	<path class="st1" d="M29.2,47.3c-1.9,0-2.6-1.1-2.6-2.5v-15h2.7v13.8c0,1,0.2,1.3,0.9,1.3c0.2,0,0.4,0,0.8-0.1l0.3,2
		C30.6,47.2,29.9,47.3,29.2,47.3"/>
	<path class="st1" d="M44.1,41.6v-0.7c0-3.8-2.1-6.3-5.4-6.3c-3.4,0-5.4,2.8-5.4,6.3c0,3.3,1.9,6.4,6,6.4c1.4,0,3.1-0.4,4.3-1.3
		l-0.7-1.8c-1,0.5-2,0.9-3.1,0.9c-2.2,0-3.7-1.5-3.7-3.5H44.1 M41.2,39.6H36c0-1.5,1-3,2.6-3C40.4,36.6,41.2,38.2,41.2,39.6"/>
	<path class="st1" d="M50.5,47.3c-2.1,0-2.9-1.2-2.9-2.8v-7.6h-2.2v-2.1h2.2v-2.8l2.7-0.8v3.6h3.3l-0.9,2.1h-2.4v6.6
		c0,1,0.4,1.4,1.2,1.4c0.8,0,1.6-0.4,2.1-0.7l0.8,1.8C53.2,46.8,51.7,47.3,50.5,47.3"/>
	<polygon class="st1" points="57.5,34.6 55.5,34.6 55.1,29.8 57.8,29.8 	"/>
	<path class="st1" d="M62.4,47.3c-2,0-3.3-0.5-4.3-1.1l0.9-2c0.8,0.5,2,1,3.3,1c1.4,0,2.3-0.5,2.3-1.5c0-2.4-5.7-1.5-5.7-5.7
		c0-2,1.6-3.5,4.5-3.5c1.5,0,2.5,0.3,3.5,0.6v2.3c-1-0.4-2-0.8-3.4-0.8c-1.1,0-1.9,0.4-1.9,1.2c0,2.2,5.8,1.5,5.8,5.7
		C67.4,46.2,65,47.3,62.4,47.3"/>
	<path class="st1" d="M78.4,47.3c-2.1,0-2.9-1.2-2.9-2.8v-7.6h-2.2v-2.1h2.2v-2.8l2.7-0.8v3.6h3.3l-0.9,2.1h-2.4v6.6
		c0,1,0.4,1.4,1.2,1.4c0.8,0,1.6-0.4,2.1-0.7l0.8,1.8C81.1,46.8,79.6,47.3,78.4,47.3"/>
	<path class="st1" d="M94.1,47c-0.2-0.5-0.2-1.4-0.2-3.7v-4.5c0-3.2-1.9-4.3-4.7-4.3c-1.6,0-3.1,0.3-4.7,1.4l0.9,1.7
		c0.8-0.5,1.8-1,3.2-1c1.4,0,2.5,0.6,2.5,2.3v0.4l-2.3,0.1c-3.2,0.1-5.2,1.5-5.2,4c0,2.4,1.8,3.8,4,3.8c1.7,0,2.9-0.7,3.7-1.4
		l0.5,1.1H94.1 M91,44.1c-0.4,0.4-1.3,1-2.5,1c-1.4,0-2.2-0.8-2.2-1.9c0-1.1,0.8-1.8,2.7-1.8l2-0.1V44.1z"/>
	<path class="st1" d="M99.5,47.3c-1.9,0-2.6-1.1-2.6-2.5v-15h2.7v13.8c0,1,0.2,1.3,0.9,1.3c0.2,0,0.4,0,0.8-0.1l0.3,2
		C100.9,47.2,100.2,47.3,99.5,47.3"/>
	<polygon class="st1" points="111.6,47 106.9,41.1 106.9,41.1 106.9,47 104.1,47 104.1,29.8 106.9,29.8 106.9,39 106.9,39 
		111.1,34.8 114.4,34.8 109.1,40 114.9,47 	"/>
	<path class="st2" d="M93.5,81.9c-4.2,0-6.8-1-8.8-2.1l1.9-3.7c1.5,0.9,3.9,2,6.9,2c3.2,0,5.4-1.3,5.4-3.5c0-5.7-12.5-3.7-12.5-12.7
		c0-3.9,3.2-7.1,9.5-7.1c3.1,0,5.3,0.6,7.2,1.4v4.2c-2-0.8-4.2-1.6-7.1-1.6c-2.7,0-4.7,0.9-4.7,3c0,5.2,12.7,3.8,12.7,12.4
		C104.1,79.7,99.2,81.9,93.5,81.9"/>
	<path class="st2" d="M175.6,69.4v-1.3c0-8-4.1-13.4-11.2-13.4c-6.9,0-11.4,5.8-11.4,13.2c0,7.2,4,13.8,12.8,13.8
		c3.1,0,6.6-1,8.9-2.7l-1.4-3.2c-1.8,1-4.2,1.8-6.6,1.8c-5.4,0-8.5-3.8-8.5-8.4H175.6 M170.2,65.7h-12c0-3.7,2.3-6.9,6.1-6.9
		C168.3,58.8,170.2,62.3,170.2,65.7"/>
	<path class="st2" d="M198.7,81.4V65.7c0-3-0.5-6.4-4.4-6.4c-3,0-5.8,1.9-7.9,3.6v18.5h-5V55.5h4.2l0.6,3c3.1-2.2,5.8-3.6,9.6-3.6
		c3.9,0,8,2.6,8,9.2v17.4H198.7"/>
	<path class="st2" d="M222.1,81.9c-8.4,0-12.8-6.1-12.8-13.2c0-7.4,4.8-13.8,13.6-13.8c2.8,0,5.4,0.8,7.1,1.7l-0.1,4.3
		c-1.8-1.2-4-2-7-2c-5.3,0-8.6,4.1-8.6,9.5c0,5.3,3.1,9.5,8.5,9.5c2.8,0,4.8-0.9,6.6-1.9l1.4,3.3C229,80.6,225.7,81.9,222.1,81.9"/>
	<path class="st2" d="M256,69.4v-1.3c0-8-4.1-13.4-11.2-13.4c-6.9,0-11.4,5.8-11.4,13.2c0,7.2,4,13.8,12.8,13.8c3.1,0,6.6-1,8.9-2.7
		l-1.4-3.2c-1.8,1-4.2,1.8-6.6,1.8c-5.4,0-8.5-3.8-8.5-8.4H256 M250.6,65.7h-12c0-3.7,2.3-6.9,6.1-6.9
		C248.7,58.8,250.6,62.3,250.6,65.7"/>
	<path class="st1" d="M155.2,42.6c0,7-5.5,12.9-12.6,12.9c-7.2,0-12.7-5.8-12.7-12.9c0-7.2,5.5-12.9,12.7-12.9
		C149.7,29.7,155.2,35.2,155.2,42.6"/>
	<path class="st2" d="M147.8,42.5c0,2.8-2.3,5.3-5.1,5.3c-3,0-5.2-2.4-5.2-5.3c0-2.9,2.3-5.3,5.2-5.3
		C145.6,37.2,147.8,39.5,147.8,42.5"/>
	<path class="st0" d="M149.2,37.3c0,1.5-1.2,2.7-2.7,2.7c-1.5,0-2.7-1.2-2.7-2.7c0-1.5,1.2-2.7,2.7-2.7
		C148,34.6,149.2,35.8,149.2,37.3"/>
	<path class="st2" d="M139.4,63c-9.2,0-16.7-7.5-16.7-16.7c0-9.2,7.5-16.7,16.7-16.7s16.7,7.5,16.7,16.7
		C156.2,55.5,148.7,63,139.4,63 M139.4,27.1c-10.6,0-19.2,8.6-19.2,19.2c0,3.1,0.7,6,2,8.6c-0.4,0-0.8-0.1-1.3-0.1
		c-8.2,0-12.8,6.5-12.8,13.8c0,7.1,4.1,13.2,12.1,13.2c3.4,0,6.5-1.3,8.4-2.6l-1.3-3.3c-1.7,1-3.6,1.9-6.2,1.9
		c-5.2,0-8.1-4.2-8.1-9.5c0-5.5,3.1-9.5,8.1-9.5c1.8,0,3.4,0.4,4.8,1c0,0,0,0,0,0c2.8,2.8,6.6,4.8,10.7,5.4v16h5.7v-16
		c9.2-1.4,16.3-9.4,16.3-19C158.6,35.7,150,27.1,139.4,27.1"/>
</g>
</svg>
