<?xml version="1.0" encoding="utf-8"?>
<!-- Generator: Adobe Illustrator 22.0.1, SVG Export Plug-In . SVG Version: 6.00 Build 0)  -->
<svg version="1.1" id="Layer_1" xmlns="http://www.w3.org/2000/svg" xmlns:xlink="http://www.w3.org/1999/xlink" x="0px" y="0px"
	 viewBox="0 0 184 210" style="enable-background:new 0 0 184 210;" xml:space="preserve">
<style type="text/css">
	.st0{fill:#FFFFFF;}
</style>
<g>
	<circle cx="60.7" cy="59.7" r="54.8"/>
	<polygon class="st0" points="22.2,146.8 42.5,146.8 42.5,152.2 47.7,152.2 47.7,138.2 70.2,138.2 70.2,159.3 74.7,159.3 
		74.7,148.3 75.6,148.3 75.6,142.7 119.3,142.7 119.3,152.8 124.5,152.8 124.5,129.3 130.1,129.3 130.1,113 136.5,113 136.5,108.9 
		142.3,108.9 142.3,113 148.1,113 148.1,130.2 155.7,130.2 155.7,153.9 161,153.9 161,146.3 180,146.3 180,166.8 176.9,166.8 
		176.9,179 22.5,179 	"/>
	<polygon class="st0" points="25.7,186.4 176.3,186.4 176.3,206.2 25.1,206.2 	"/>
	<path d="M36.3,193.2c0-0.7-0.4-1.2-1.4-1.2h-0.7l-0.6,3.1h0.8C35.7,195.1,36.3,194.4,36.3,193.2z M134.9,200.7
		c2.4,0,3.2-4.9,3.2-6.9c0-1.4-0.5-2.1-1.4-2.1c-2.2,0-3.2,4.9-3.2,6.8C133.5,200,134,200.7,134.9,200.7z M22.6,208.7l155,0.3
		l1.2-25.1l-157.4-0.1L22.6,208.7z M162.4,199.6c0.7,0.6,1.7,1.1,2.9,1.1c1,0,2.1-0.5,2.1-1.5c0-0.7-0.6-1-1.3-1.3l-1-0.5
		c-1-0.5-2.2-1.3-2.2-3.4c0-2.8,2.4-4.8,5.4-4.8c1.9,0,3.2,0.5,4.1,1.2l-1.8,2.2c-0.7-0.5-1.5-0.9-2.4-0.9c-0.9,0-1.8,0.5-1.8,1.3
		c0,0.7,0.5,1,1,1.3l1.4,0.7c1.2,0.6,2.1,1.3,2.1,3.3c0,3.4-2.8,5.1-6.1,5.1c-2,0-3.4-0.5-4.3-1.3L162.4,199.6z M146.6,198.7l2-9.3
		h3.1l-2,9.3c-0.2,0.9-0.3,2.1,1,2.1c1.1,0,1.5-0.6,1.8-2.1l2-9.3h3.1l-2,9.5c-0.6,2.9-2,4.5-5.3,4.5
		C146.8,203.3,146,201.5,146.6,198.7z M137,189.1c3.2,0,4.4,2.1,4.4,5c0,4.3-2,9.2-6.8,9.2c-3,0-4.6-1.8-4.6-4.9
		C130.1,194.1,132.4,189.1,137,189.1z M120.1,189.3l-0.1,7.1c0,0.9,0,1.9,0,2.8c0.5-1.2,0.8-1.9,1.2-2.8l3.1-7.1h3.3l-6.7,13.9h-3.5
		l-0.7-13.9H120.1z M101.2,201l5.7-7.8c0.3-0.5,0.8-1.1,1-1.2c-0.3,0.1-0.8,0.1-1.3,0.1h-3.2l0.8-2.7h7.8l-0.5,2.3l-5.8,8
		c-0.2,0.3-0.6,0.8-0.8,1c0.3-0.1,0.9,0,1.3,0h3.4l-0.8,2.7h-8.1L101.2,201z M91.1,189.3h7l-0.9,2.7h-3.7l-0.6,2.7h3l-0.5,2.7h-3
		l-0.7,3.2h4l-0.6,2.7h-7.1L91.1,189.3z M75.8,189.3h3.9c2.8,0,4.1,1.7,4.1,4.4c0,2.7-0.7,5.5-2.2,7.3c-1.1,1.3-2.4,2.2-4.5,2.2
		h-4.2L75.8,189.3z M60.1,189.3H63l1.2,4.7c0.2,0.7,0.4,1.8,0.5,2.7c0.1-0.8,0.4-2.3,0.6-3.2l0.9-4.3H69l-2.9,13.9H63l-1.1-4.8
		c-0.2-0.7-0.3-1.9-0.4-2.7c0,0.5-0.2,2-0.5,3l-1,4.6h-2.9L60.1,189.3z M46.9,189.3h7l-0.9,2.7h-3.7l-0.6,2.7h3l-0.6,2.7h-3
		l-0.6,3.2h4l-0.6,2.7H44L46.9,189.3z M31.8,189.3h3.9c3.1,0,4.2,1.6,4.2,3.4c0,2.1-1.3,3.9-3.3,4.2c0.4,0.1,0.8,0.9,0.9,1.6
		c0.2,1,0.7,3.6,0.9,4.7h-3.4l-0.5-3.9c-0.2-1.4-0.6-1.6-1.3-1.6l-1.1,5.5h-3.1L31.8,189.3z M79.3,198.7c0.7-1.5,1.1-3.8,1.1-4.9
		c0-1.3-0.5-1.8-1.3-1.8h-0.8l-1.8,8.3h0.9C78.3,200.4,78.9,199.7,79.3,198.7z M158.9,145.5l0,7.2H157l-0.1-24.3l-7.1-0.9l-0.5-16.7
		h-5.4l-1.1-5.7c7.7,5.8,12,1.9,9.1-7.4c14.1-2.8,15-9.8-0.7-10.9c7.6-14.1-1-17.3-12.7-6.5c-9.7-11.2-15.7-6.5-10.3,5.7
		c-12.9,3.1-14,9.8-0.4,12.1c-5.1,9.7,0.1,12.5,8.3,6.6l-1.4,7.1h-5.4l-1.1,15.8h-5.9l-0.1,24.5l-1.6-0.1l0-10.4h-9.5v-4h-3.5
		c-0.6-4.8-4.7-8.6-9.7-8.6c-4.7,0-8.7,3.4-9.6,7.9h-3.6v4.6H74.5l0,5.5h-2.8l0-10.5l-5.6,0l0-5.1l-12.6-6.1l-0.3,11.2l-6.4,0
		l0,13.6h-1.8l0-4.6l-25.8-0.8l2.5,36.6l21.4,0v0h63.8l1.9,0v0h2.1v0l46,0v0h2.1v0l20.8,0l2.4-37L158.9,145.5z M34.7,147.7l4,0l0,4
		l-4,0L34.7,147.7z M34.2,154.2l3.4,0l0,3.2l-3.4,0L34.2,154.2z M30.1,147.7l2.7,0l0,4l-2.7,0L30.1,147.7z M29.3,154l3.2,0l0,3.6
		l-3.2,0L29.3,154z M27.8,152.2l-3.5,0l0-4.3l3.5,0L27.8,152.2z M33.6,177.6c-1.8,0-3.4-0.5-4.8-1.5l1-1.8c1.1,0.9,2.3,1.3,3.7,1.3
		c1.7,0,3-0.9,3-2.5c0-1.2-0.6-1.9-1.8-2.6l-2.2-1.1c-1.5-0.8-3.1-1.8-3.1-4.2c0-2.6,2-4.6,4.8-4.6c1.7,0,3.1,0.5,4.5,1.5l-1.1,1.7
		c-1.3-0.9-2.1-1.3-3.3-1.3c-1.5,0-2.5,0.9-2.5,2.2c0,1.2,0.4,1.8,1.7,2.5l2.5,1.2c1.8,0.9,3,2.1,3,4.3
		C39,175.9,36.6,177.6,33.6,177.6z M42.3,157.4l-3.1,0l0-3.6l3.1,0L42.3,157.4z M60.4,139.2l3.1,0l0,4.5l-3.1,0L60.4,139.2z
		 M54.5,139.5l3.3,0l0,4.7l-3.3,0L54.5,139.5z M58.3,152.7l0,3.6l-3.2,0l0-3.6L58.3,152.7z M49.9,146.4l3.5,0l0,4.3l-3.5,0
		L49.9,146.4z M49.7,152.7l3.3,0l0,3.4l-3.3,0L49.7,152.7z M58.6,177.6c-1.4,0-3.2-0.7-4.2-2c-1.2-1.6-1.8-3.2-1.8-6.2
		c0-4.7,2.3-8.5,6.2-8.5c1.4,0,2.7,0.5,3.6,1.3l-1.2,1.6c-0.8-0.7-1.5-1-2.5-1c-3.1,0-3.7,3.7-3.7,6.5c0,2,0.1,2.9,0.6,4
		c0.7,1.5,1.8,2.4,3.2,2.4c1,0,1.8-0.2,2.7-0.9l1,1.6C61.5,177.2,60.2,177.6,58.6,177.6z M63.3,155.6l-3.4,0l0-3.2l3.4,0L63.3,155.6
		z M64.1,149.9l-4,0l0-4l4,0L64.1,149.9z M67.6,156.4l-2.6,0l0-3.6l2.6,0L67.6,156.4z M68.2,150l-2.6,0l0-3.6l2.6,0L68.2,150z
		 M76.5,148.1h2.8v2.9h-2.8V148.1z M78.8,177.6h-2.2v-16.3h2.2V177.6z M79.7,156.3h-3.4v-3.2h3.4V156.3z M81,148.1h3v3h-3V148.1z
		 M84.7,156.3h-3.3v-3.4h3.3V156.3z M86,148.1h3.3v3.2H86V148.1z M89.5,156.6h-3.2v-3.6h3.2V156.6z M89.8,146.6h-3v-3h3V146.6z
		 M95.8,148h3.5v3h-3.5V148z M99.3,152.7v3.6h-2.6v-3.6H99.3z M91.3,143.5h2.8v2.9h-2.8V143.5z M91.3,153.2h3.4v3.2h-3.4V153.2z
		 M102.2,177.6h-8.1v-16.3h7.9l-0.3,2h-5.3v4.9h4.5v2h-4.5v5.5h5.8V177.6z M103.8,151.1h-3v-3h3V151.1z M104.1,146.4h-3.6v-3.2h3.6
		V146.4z M125.3,132.2h3.3v3.8h-3.3V132.2z M129.2,138.7v3.4h-3v-3.4H129.2z M105.8,143.6h3.3v3.2h-3.3V143.6z M109.8,156.6h-3.2
		v-3.6h3.2V156.6z M110.6,150.6v-2.9h2.8v2.9H110.6z M114.5,156.3h-3.4v-3.2h3.4V156.3z M115.3,147.4h2.4v3.5h-2.4V147.4z
		 M115.7,152.7h2.6v3.6h-2.6V152.7z M126.1,177.6h-2.4l-3.9-8.8c-0.7-1.7-1.5-3.9-1.5-3.9s0.2,2.6,0.2,4.4l0.1,8.3h-2.2v-16.3h2.4
		l4.1,9.2c0.6,1.3,1.2,3.3,1.3,3.5c0,0-0.2-2.9-0.2-4.9l0-7.8h2.2V177.6z M129.3,155.5H126v-3.8h3.3V155.5z M149.7,138.7v3.4h-3
		v-3.4H149.7z M149.1,135.9h-3.3v-3.8h3.3V135.9z M143.2,114.6h3.4v3.5h-3.4V114.6z M143.2,126.2h3.4v3.5h-3.4V126.2z M141.9,151.5
		h2.6v4h-2.6V151.5z M141.4,141.9V138h2.4v3.9H141.4z M143.8,131.9v4h-2.6v-4H143.8z M131.8,92.5c0.8,1.2,1.7,2.5,2.7,3.9
		c-1.7-0.1-3.3-0.2-4.7-0.4C130.4,94.8,131.1,93.6,131.8,92.5z M131.7,86.6c0.4-0.1,0.8-0.2,1.2-0.3c-0.3,0.3-0.6,0.7-0.9,1.1
		C131.9,87.1,131.8,86.8,131.7,86.6z M133.4,90c0.7-1.1,1.2-1.7,1.1-1.6c-0.4,0.5-0.8,1-1.2,1.5c-0.4-0.7-0.7-1.4-1.1-2
		c0.5-0.5,1.1-1.1,1.8-1.8c2.8-0.6,5.5-1,7.5-1.3c0.6,0.8,1.1,1.4,1.5,1.9c-0.8,0-1.5,0.1-2.3,0.1c-0.2,0,0.9,0,2.5,0.1
		c0.4,0.5,0.6,0.8,0.6,0.8c-0.2-0.3-0.3-0.5-0.5-0.8c0.7,0,1.5,0.1,2.4,0.1c0.3,0.7,0.7,1.4,1,2.2c-1.7,2.5-3.7,4.9-5.8,7.2
		l-1.1-5.7h-1l-1.1,5.8c0,0,0,0-0.1,0C136.1,94.4,134.7,92.2,133.4,90z M141.9,84.7c1.2-0.2,2.1-0.3,2.6-0.3
		c0.3,0.6,0.7,1.3,1.1,2.2c-0.8,0-1.6,0-2.4,0.1C142.8,86,142.3,85.3,141.9,84.7z M147.3,88.3c-0.3-0.4-0.6-0.9-0.8-1.3
		c0.5,0,1.1,0.1,1.6,0.1C147.8,87.5,147.6,87.9,147.3,88.3z M149.4,95.3c-1.4,0.3-2.9,0.5-4.5,0.7c0.9-1.2,1.9-2.4,2.8-3.8
		c0.1-0.1,0.2-0.2,0.3-0.4C148.5,93,149,94.2,149.4,95.3z M138,109.5h3.3v3.8H138V109.5z M138.2,120.1h3.2v4h-3.2V120.1z M138.2,126
		h3.2v4h-3.2V126z M148.4,104.6c-2,0-4.2-1.3-6.4-3.4l-0.3-1.7c0.3-0.3,0.6-0.6,0.9-0.9c2.8-0.1,5.4-0.4,7.6-0.8
		C151.2,101.7,151.2,104.7,148.4,104.6z M158.6,91.8c-0.8,1.3-3.8,2.4-7.7,3.3c-0.6-1.4-1.3-2.8-2.1-4.3c0.8-1.2,1.4-2.3,2-3.3
		C155.6,88,160.1,89.2,158.6,91.8z M150.5,77.5c1,2.1,0,5.5-2.1,9.2c-0.7,0-1.4,0-2.2,0c-0.5-0.7-1-1.5-1.6-2.2c0.1,0,0.2,0,0.2,0
		c-0.1,0-0.1,0-0.2,0c-0.2-0.3-0.5-0.7-0.7-1c0,0,0.2,0.4,0.6,1c-1,0-1.9,0-2.8,0c-0.8-1.1-1.5-2.1-2.3-3
		C144.1,77.5,149.1,74.4,150.5,77.5z M138.9,81.7c0.8,0.9,1.6,1.8,2.3,2.7c-2.1,0.1-4,0.2-5.8,0.4C136.5,83.8,137.7,82.7,138.9,81.7
		z M129.8,77.4c1.5-2.6,5.1,0.1,8.2,3.3c-1.3,1.2-2.6,2.6-3.9,4.2c-1,0.1-2,0.3-2.9,0.4C129.6,81.8,129,78.7,129.8,77.4z M122,92.8
		c-1.8-2.3,1.9-4.2,6.8-5.5c0.4,0.8,0.9,1.7,1.4,2.6c-0.1,0.1-0.1,0.1-0.2,0.2c0,0,0.1-0.1,0.2-0.2c0.4,0.7,0.9,1.5,1.4,2.2
		c-1,1.3-1.8,2.6-2.5,3.7C125.8,95.3,123.2,94.3,122,92.8z M129.6,104.3c-2.7-0.1-2.3-3-0.9-6.2c2.2,0.3,4.8,0.5,7.7,0.6
		c0.2,0.3,0.5,0.6,0.7,0.8l-0.1,0.6C134,102.7,131.3,104.4,129.6,104.3z M132.9,114.3h3.2v4h-3.2V114.3z M132.7,120.1h3.3v3.8h-3.3
		V120.1z M130.8,132.2h3.2v4h-3.2V132.2z M131.1,138.7h3.3v3.5h-3.3V138.7z M134.6,155.8h-3.2v-4h3.2V155.8z M135,148.9h-2.7v-4.4
		h2.7V148.9z M135.8,132.4h3.4v3.5h-3.4V132.4z M140.9,144.5v4.4h-4v-4.4H140.9z M139.9,155.5h-3.4V152h3.4V155.5z M146.5,177.6
		c-1.4,0-3.2-0.7-4.2-2c-1.2-1.6-1.8-3.2-1.8-6.2c0-4.7,2.3-8.5,6.2-8.5c1.4,0,2.7,0.5,3.6,1.3l-1.2,1.6c-0.8-0.7-1.5-1-2.5-1
		c-3.1,0-3.7,3.7-3.7,6.5c0,2,0.1,2.9,0.6,4c0.7,1.5,1.8,2.4,3.2,2.4c1,0,1.8-0.2,2.7-0.9l1,1.6C149.4,177.2,148,177.6,146.5,177.6z
		 M150.5,149.5H147v-4.7h3.5V149.5z M151.3,131.9h2.6v4h-2.6V131.9z M154.6,155.5H152v-4h2.6V155.5z M154.4,149.3H152v-4.7h2.4
		V149.3z M170.9,148.4h3.1v3.2h-3.1V148.4z M173.7,153.4v3.2h-3.1v-3.2H173.7z M165.2,156.7h-3.6v-3.5h3.6V156.7z M166.7,148.2h2.7
		v3.9h-2.7V148.2z M172.5,177.6h-8.1v-16.3h7.9l-0.3,2h-5.4v4.9h4.5v2h-4.5v5.5h5.8V177.6z M178.3,156.6h-3.2v-3.1h3.2V156.6z
		 M178.8,151.2h-3.6v-3.5h3.6V151.2z"/>
	<g>
		<path class="st0" d="M45.6,80.7h-0.9v1.9h0.8c0.4,0,0.6-0.2,0.6-0.6v-0.7C46.1,80.9,46,80.7,45.6,80.7z"/>
		<path class="st0" d="M60.7,1.1C28.3,1.1,2,27.3,2,59.7s26.3,58.7,58.7,58.7c32.4,0,58.7-26.3,58.7-58.7S93.1,1.1,60.7,1.1z
			 M58.5,42.3l3.5,0v0.4c0.7-0.3,1.4-0.4,2.1-0.4c1.5,0,2.9,0.6,3.9,1.6c1.1,1,1.6,2.4,1.6,3.8c0,0,0,0.1,0,0.1v5.6h-3.5v-5.7v0
			c0-0.5-0.2-1-0.6-1.4c-0.4-0.4-0.9-0.6-1.5-0.6c-0.6,0-1.1,0.2-1.5,0.6c-0.4,0.4-0.6,0.9-0.6,1.4l0,0v5.7h-3.5L58.5,42.3z
			 M49.1,42.3l7.7,0l0,3l-7.7,0l0,1l7.7,0v3l-7.7,0l0,1l7.7,0v3l-7.7,0h-3.4v-3v-1l0-3v-1l0-3L49.1,42.3z M51.7,60.8
			c0,3.1-2.5,5.6-5.6,5.6V55.2C49.2,55.2,51.7,57.7,51.7,60.8z M39.3,36.7c1.2,0,2.1,0.9,2.1,2.1c0,1.2-0.9,2.1-2.1,2.1
			c-1.2,0-2.1-0.9-2.1-2.1C37.2,37.6,38.1,36.7,39.3,36.7z M35.1,50.1h2.8v-4.4h-2.8v-3.4l6.2,0l0,2.7l0,0.7v4.4h2.6v3.4l-8.8,0
			V50.1z M45.1,55.2l0,11.1h-5.6l0-11.1H45.1z M19.3,46.3L19.3,46.3c2,0,3.7,1.6,3.7,3.7c0,2-1.6,3.7-3.7,3.7c-2,0-3.7-1.6-3.7-3.7
			h3.3c0,0.2,0.2,0.4,0.4,0.4c0.2,0,0.4-0.2,0.4-0.4c0-0.2-0.2-0.4-0.4-0.4v0c-2,0-3.7-2-3.7-4c0-2,1.6-3.3,3.7-3.3
			c2,0,3.7,1.6,3.7,3.7h-3.3c0-0.2-0.2-0.4-0.4-0.4c-0.2,0-0.4,0.2-0.4,0.4C18.9,46.1,19.1,46.3,19.3,46.3z M24.1,47.9
			c0-1.5,0.6-2.9,1.6-4c1.1-1.1,2.5-1.6,4-1.6c1.5,0,2.9,0.6,4,1.6l-2.5,2.5c-0.4-0.4-0.9-0.6-1.5-0.6c-0.6,0-1.1,0.2-1.5,0.6
			c-0.4,0.4-0.6,0.9-0.6,1.5c0,0.6,0.2,1.1,0.6,1.5c0.4,0.4,0.9,0.6,1.5,0.6c0.6,0,1.1-0.2,1.5-0.6l2.5,2.5c-1.1,1.1-2.5,1.6-4,1.6
			c-1.5,0-2.9-0.6-4-1.6C24.7,50.8,24.1,49.4,24.1,47.9z M32.1,66.5c-3.2,0-5.7-2.6-5.7-5.7c0-3.2,2.6-5.7,5.7-5.7
			c3.2,0,5.7,2.6,5.7,5.7C37.8,63.9,35.2,66.5,32.1,66.5z M41.3,82.2c0,1.1-0.6,1.7-1.8,1.7h-1v2.6H37v-7.1h2.6
			c1.2,0,1.8,0.7,1.8,1.8V82.2z M47.9,86.6H47c-0.6,0-0.9-0.4-0.9-1.1v-1.2c0-0.4-0.2-0.7-0.6-0.7h-0.8v2.9h-1.5v-7.1h2.6
			c1.1,0,1.8,0.7,1.8,1.7v0.8c0,0.6-0.3,1-0.9,1.2c0.6,0.1,0.9,0.7,0.9,1.2v1.2c0,0.3,0.1,0.6,0.3,0.7V86.6z M53.6,80.8h-2.4v1.6
			h1.7v1.1h-1.7v1.8h2.4v1.3h-3.9v-7.1h3.9V80.8z M57.5,86.7c-1.4,0-2.3-0.8-2.3-2v-0.4h1.4v0.2c0,0.6,0.3,0.9,0.9,0.9
			c0.5,0,0.8-0.3,0.8-0.8c0-0.5-0.4-0.8-1.2-1.2c-0.9-0.5-1.8-1-1.8-2.1c0-1.1,0.8-2.1,2.2-2.1c1.3,0,2.2,0.9,2.2,2v0.3h-1.4v-0.2
			c0-0.5-0.3-0.9-0.8-0.9c-0.4,0-0.7,0.3-0.7,0.7c0,0.5,0.4,0.8,1.3,1.2c1,0.5,1.7,1.1,1.7,2.1C59.7,85.7,58.9,86.7,57.5,86.7z
			 M59.8,66.3v4.8h-3.3v-4.7l-4.7-11.2h3.7l2.7,6.3l2.7-6.3h3.7L59.8,66.3z M65.5,80.8h-2.4v1.6h1.7v1.1h-1.7v1.8h2.4v1.3h-3.9v-7.1
			h3.9V80.8z M72.1,86.6H71l-1.6-2.8l-0.6-1.2v4h-1.4v-7.1h1.3l1.5,2.9l0.6,1.2v-4.1h1.4V86.6z M68.5,59.2L68.5,59.2
			c2,0,3.7,1.6,3.7,3.7c0,2-1.6,3.7-3.7,3.7c-2,0-3.7-1.6-3.7-3.7h3.3c0,0.2,0.2,0.4,0.4,0.4c0.2,0,0.4-0.2,0.4-0.4
			c0-0.2-0.2-0.4-0.4-0.4v0c-2,0-3.7-1.7-3.7-3.7c0-2,1.6-3.7,3.7-3.7c2,0,3.7,1.6,3.7,3.7h-3.3c0-0.2-0.2-0.4-0.4-0.4
			c-0.2,0-0.4,0.2-0.4,0.4C68.1,59,68.3,59.2,68.5,59.2z M71.1,47.9c0-1.5,0.6-2.9,1.6-4c1.1-1.1,2.5-1.6,4-1.6c1.5,0,2.9,0.6,4,1.6
			l-2.5,2.5c-0.4-0.4-0.9-0.6-1.5-0.6c-0.6,0-1.1,0.2-1.5,0.6c-0.4,0.4-0.6,0.9-0.6,1.5c0,0.6,0.2,1.1,0.6,1.5
			c0.4,0.4,0.9,0.6,1.5,0.6c0.6,0,1.1-0.2,1.5-0.6l2.5,2.5c-1.1,1.1-2.5,1.6-4,1.6c-1.5,0-2.9-0.6-4-1.6
			C71.7,50.8,71.1,49.4,71.1,47.9z M78.4,80.8h-1.5v5.8h-1.5v-5.8h-1.5v-1.3h4.6V80.8z M77,66.5c-2,0-3.7-1.6-3.7-3.7h3.3
			c0,0.2,0.2,0.4,0.4,0.4c0.2,0,0.4-0.2,0.4-0.4c0-0.2-0.2-0.4-0.4-0.4v0c-2,0-3.7-1.7-3.7-3.7c0-2,1.6-3.7,3.7-3.7
			c2,0,3.7,1.6,3.7,3.7h-3.3c0-0.2-0.2-0.4-0.4-0.4c-0.2,0-0.4,0.2-0.4,0.4c0,0.2,0.2,0.4,0.4,0.4v0c2,0,3.7,1.6,3.7,3.7
			C80.7,64.9,79,66.5,77,66.5z M81.9,86.7c-1.4,0-2.3-0.8-2.3-2v-0.4h1.4v0.2c0,0.6,0.3,0.9,0.9,0.9c0.5,0,0.8-0.3,0.8-0.8
			c0-0.5-0.4-0.8-1.2-1.2c-0.9-0.5-1.8-1-1.8-2.1c0-1.1,0.8-2.1,2.2-2.1c1.3,0,2.2,0.9,2.2,2v0.3h-1.4v-0.2c0-0.5-0.3-0.9-0.8-0.9
			c-0.4,0-0.7,0.3-0.7,0.7c0,0.5,0.4,0.8,1.3,1.2c1,0.5,1.7,1.1,1.7,2.1C84.2,85.7,83.4,86.7,81.9,86.7z M93.2,58.3h-7.7v1h7.7v3
			h-7.7v1l7.7,0v3l-7.7,0l-3.4,0l0-3v-1v-3v-1v-3h3.4l7.7,0V58.3z M93.2,45.4l-7.7,0v1h7.7v3l-7.7,0v1l7.7,0v3l-7.7,0h-3.4l0-3v-1
			v-3v-1v-3l3.4,0l7.7,0V45.4z M102.7,71.1h-3.3v-4.7l-4.7-11.2h3.7l2.7,6.3l2.7-6.3h3.7l-4.7,11.1V71.1z"/>
		<path class="st0" d="M39.3,80.7h-0.9v2.1h0.9c0.4,0,0.5-0.2,0.5-0.6v-0.9C39.9,80.9,39.7,80.7,39.3,80.7z"/>
	</g>
</g>
</svg>
